<svg viewBox="0 0 22 31" fill="#1f4a9a" xmlns="http://www.w3.org/2000/svg"><path d="M21.679 20.761L21.815 20.859V22.414C21.815 24.008 20.967 25.485 19.593 26.263L13.133 29.995C11.757 30.792 10.064 30.792 8.689 29.995L7.327 29.218V29.062L21.679 20.761ZM8.689 7.387C10.064 6.59 11.757 6.59 13.133 7.387L14.358 8.087V8.398L5.212 13.685C4.277 14.21 3.713 15.221 3.74 16.31L3.76 17.029L3.917 17.126L16.842 9.661L17.068 9.661L19.593 11.119C20.967 11.916 21.815 13.374 21.815 14.968V17.884L21.724 18.059L4.943 27.74L4.772 27.74C4.772 27.74 4.048 27.321 3.264 26.867L2.9 26.656C2.173 26.235 1.481 25.835 1.347 25.757L1.367 25.563C2.828 24.727 16.875 16.621 18.081 15.921L18.19 15.765C18.232 15.571 18.291 15.085 18.013 14.599C17.735 14.113 17.299 13.938 17.105 13.88L16.924 13.899C15.732 14.58 1.668 22.705 0.177 23.561L0 23.464V21.989C0.0001 21.915 0.0001 21.839 0.001 21.761L0.002 20.486C0.002 20.396 0.002 20.304 0.002 20.212L0.003 19.085C0.003 18.99 0.003 18.896 0.003 18.802L0.004 17.697C0.004 17.608 0.004 17.52 0.004 17.433L0.005 16.247C0.005 16.177 0.005 16.109 0.005 16.043L0.006 14.968C0.006 13.374 0.853 11.916 2.228 11.119L8.689 7.387ZM10.933 0C15.719 0 19.653 3.674 19.996 8.281L19.702 8.456L16.631 6.687L16.555 6.59C15.639 4.432 13.448 2.916 10.892 2.916C8.334 2.916 6.145 4.452 5.249 6.648L5.173 6.726L2.123 8.495L1.829 8.32C2.107 3.694 6.081 0 10.933 0Z"/></svg>
