<?xml version="1.0" encoding="UTF-8"?>
<svg width="203px" height="30px" viewBox="0 0 203 30" version="1.1" xmlns="http://www.w3.org/2000/svg" xmlns:xlink="http://www.w3.org/1999/xlink">
    <title>logo-white</title>
    <g id="Brand" stroke="none" stroke-width="1" fill="none" fill-rule="evenodd">
        <g id="Web-Brand" transform="translate(-150, -27)">
            <g id="Group-2" transform="translate(125, 12)">
                <g id="logo-white" transform="translate(25, 15)">
                    <path d="M36.4533995,7.7139999 C35.7636996,6.82099991 34.8554996,6.36499992 33.7268996,6.36499992 C33.3297996,6.36499992 32.9421996,6.47899992 32.5678996,6.66899992 C32.1916996,6.85899991 32.0035996,7.20099991 32.0035996,7.6759999 C32.0035996,8.0749999 32.1954996,8.3599999 32.5830996,8.54999989 C32.9687996,8.72099989 33.4608996,8.89199989 34.0555996,9.02499989 C34.6521996,9.17699988 35.2886996,9.32899988 35.9669995,9.48099988 C36.6471995,9.65199988 37.2836995,9.91799988 37.8802995,10.2599999 C38.4749995,10.6019999 38.9651995,11.0769999 39.3527995,11.6849999 C39.7384995,12.2739998 39.9322995,13.0719998 39.9322995,14.0789998 C39.9322995,15.1049998 39.7175995,15.9409998 39.2900995,16.6059998 C38.8606995,17.2709998 38.3134995,17.8029998 37.6446995,18.2019998 C36.9758995,18.6009998 36.2234995,18.8859998 35.3893996,19.0569998 C34.5514996,19.2279998 33.7268996,19.3039998 32.9117996,19.3039998 C31.8458996,19.3039998 30.7704996,19.1519998 29.6836996,18.8289998 C28.5968996,18.5059998 27.6772997,17.9549998 26.9248997,17.1379998 L29.7786996,13.8509998 C30.2175996,14.4209998 30.7020996,14.8389998 31.2359996,15.1429998 C31.7679996,15.4279998 32.3892996,15.5799998 33.0998996,15.5799998 C33.6432996,15.5799998 34.1334996,15.5039998 34.5723996,15.3329998 C35.0112996,15.1619998 35.2316996,14.8769998 35.2316996,14.4399998 C35.2316996,14.0219998 35.0378996,13.7179998 34.6521996,13.5089998 C34.2645996,13.2999998 33.7724996,13.1289998 33.1777996,12.9769998 C32.5830996,12.8439998 31.9446996,12.6919998 31.2663996,12.5209998 C30.5880996,12.3689998 29.9496996,12.1219998 29.3530996,11.7989999 C28.7583996,11.4569999 28.2681996,11.0009999 27.8805997,10.4119999 C27.4948997,9.80399988 27.3010997,9.00599989 27.3010997,7.9989999 C27.3010997,7.06799991 27.4853997,6.26999992 27.8501997,5.58599993 C28.2149996,4.92099994 28.6956996,4.35099995 29.2922996,3.91399995 C29.8869996,3.49599996 30.5709996,3.17299996 31.3442996,2.96399996 C32.1175996,2.75499997 32.9003996,2.64099997 33.6945996,2.64099997 C34.6977996,2.64099997 35.7123996,2.79299996 36.7345995,3.11599996 C37.7586995,3.41999996 38.6269995,3.95199995 39.3375995,4.73099994 L36.4533995,7.7139999 M51.9991993,9.17699988 C52.0200993,8.3599999 51.7597994,7.6379999 51.2163994,7.04899991 C50.6729994,6.47899992 49.9718994,6.17499992 49.1168994,6.17499992 C48.5943994,6.17499992 48.1345994,6.26999992 47.7374994,6.44099992 C47.3403994,6.61199992 47.0002994,6.83999991 46.7190994,7.10599991 C46.4359994,7.37199991 46.2155994,7.6949999 46.0597994,8.0559999 C45.9039994,8.41699989 45.8146994,8.79699989 45.7937994,9.17699988 L51.9991993,9.17699988 Z M55.9796993,16.1689998 C55.2272993,17.1759998 54.2772993,17.9359998 53.1277993,18.4869998 C51.9782993,19.0189998 50.7869994,19.3039998 49.5557994,19.3039998 C48.3834994,19.3039998 47.2833994,19.1139998 46.2478994,18.7149998 C45.2142994,18.3159998 44.3155994,17.7649998 43.5517995,17.0239998 C42.7898995,16.3019998 42.1894995,15.4279998 41.7505995,14.4019998 C41.3116995,13.3759998 41.0912995,12.2359998 41.0912995,10.9819999 C41.0912995,9.70899988 41.3116995,8.56899989 41.7505995,7.54299991 C42.1894995,6.51699992 42.7898995,5.64299993 43.5517995,4.92099994 C44.3155994,4.19899995 45.2142994,3.62899995 46.2478994,3.22999996 C47.2833994,2.84999996 48.3834994,2.64099997 49.5557994,2.64099997 C50.6406994,2.64099997 51.6286994,2.84999996 52.5159993,3.22999996 C53.4051993,3.62899995 54.1575993,4.19899995 54.7731993,4.92099994 C55.3887993,5.64299993 55.8656993,6.51699992 56.1981993,7.54299991 C56.5325993,8.56899989 56.7016993,9.70899988 56.7016993,10.9819999 L56.7016993,12.5019998 L45.7937994,12.5019998 C45.9818994,13.4519998 46.3884994,14.1929998 47.0154994,14.7439998 C47.6424994,15.2949998 48.4157994,15.5799998 49.3353994,15.5799998 C50.1086994,15.5799998 50.7622994,15.3899998 51.2942994,15.0479998 C51.8262993,14.6869998 52.2917993,14.2119998 52.6888993,13.6609998 L55.9796993,16.1689998 L55.9796993,16.1689998 Z M69.0801991,8.1699999 C68.8502991,7.8279999 68.5272991,7.52399991 68.1092991,7.29599991 C67.6912992,7.06799991 67.2428992,6.95399991 66.7621992,6.95399991 C65.5708992,6.95399991 64.6455992,7.33399991 63.9881992,8.0749999 C63.3307992,8.81599989 63.0001992,9.78499988 63.0001992,10.9819999 C63.0001992,12.1789998 63.3307992,13.1479998 63.9881992,13.8889998 C64.6455992,14.6299998 65.5708992,14.9909998 66.7621992,14.9909998 C67.2846992,14.9909998 67.7330992,14.8769998 68.1092991,14.6299998 C68.4854991,14.4019998 68.8084991,14.1169998 69.0801991,13.7749998 L72.1847991,17.1759998 C71.4532991,17.9549998 70.5906991,18.5059998 69.5988991,18.8289998 C68.6051991,19.1519998 67.6589992,19.3039998 66.7621992,19.3039998 C65.5917992,19.3039998 64.4897992,19.1139998 63.4542992,18.7149998 C62.4206992,18.3159998 61.5219992,17.7649998 60.7600992,17.0239998 C59.9962992,16.3019998 59.3958993,15.4279998 58.9569993,14.4019998 C58.5180993,13.3759998 58.2995993,12.2359998 58.2995993,10.9819999 C58.2995993,9.70899988 58.5180993,8.56899989 58.9569993,7.54299991 C59.3958993,6.51699992 59.9962992,5.64299993 60.7600992,4.92099994 C61.5219992,4.19899995 62.4206992,3.62899995 63.4542992,3.22999996 C64.4897992,2.84999996 65.5917992,2.64099997 66.7621992,2.64099997 C67.6589992,2.64099997 68.6051991,2.81199996 69.5988991,3.11599996 C70.5906991,3.43899996 71.4532991,3.98999995 72.1847991,4.76899994 L69.0801991,8.1699999 M88.3879989,18.9049998 L83.8754989,18.9049998 L83.8754989,16.7579998 L83.8108989,16.7579998 C83.643699,17.0619998 83.428999,17.3659998 83.168699,17.6699998 C82.908399,17.9739998 82.589199,18.2399998 82.212999,18.4869998 C81.836799,18.7149998 81.409299,18.9239998 80.928599,19.0759998 C80.447899,19.2279998 79.925399,19.3039998 79.361099,19.3039998 C78.169799,19.3039998 77.202699,19.1139998 76.461699,18.7339998 C75.720699,18.3539998 75.1449991,17.8219998 74.7383991,17.1379998 C74.3317991,16.4729998 74.0581991,15.6749998 73.9232991,14.7629998 C73.7864991,13.8509998 73.7199991,12.8629998 73.7199991,11.7989999 L73.7199991,3.03999996 L78.420599,3.03999996 L78.420599,10.8109999 C78.420599,11.2669999 78.435799,11.7419999 78.468099,12.2359998 C78.498499,12.7299998 78.593499,13.1669998 78.751199,13.5849998 C78.906999,14.0029998 79.146399,14.3449998 79.471299,14.5919998 C79.794299,14.8579998 80.257899,14.9909998 80.865899,14.9909998 C81.471999,14.9909998 81.962199,14.8769998 82.338399,14.6489998 C82.714599,14.4209998 83.001499,14.1169998 83.200999,13.7369998 C83.398599,13.3569998 83.529699,12.9199998 83.592399,12.4449998 C83.655099,11.9699998 83.6854989,11.4569999 83.6854989,10.9439999 L83.6854989,3.03999996 L88.3879989,3.03999996 L88.3879989,18.9049998 M90.9263989,3.03999996 L95.6269988,3.03999996 L95.6269988,5.58599993 L95.6896988,5.58599993 C96.1912988,4.61699994 96.7878988,3.87599995 97.4756988,3.38199996 C98.1672988,2.88799996 99.0336988,2.64099997 100.078699,2.64099997 C100.350399,2.64099997 100.622099,2.65999997 100.893799,2.67899997 C101.163599,2.69799997 101.414399,2.75499997 101.646199,2.81199996 L101.646199,7.27699991 C101.311799,7.18199991 100.981199,7.08699991 100.658199,7.04899991 C100.333299,6.99199991 99.9950987,6.95399991 99.6397987,6.95399991 C98.7410988,6.95399991 98.0304988,7.08699991 97.5079988,7.35299991 C96.9854988,7.6189999 96.5826988,7.9799999 96.3014988,8.45499989 C96.0183988,8.91099989 95.8359988,9.48099988 95.7523988,10.1269999 C95.6687988,10.7729999 95.6269988,11.4949999 95.6269988,12.2739998 L95.6269988,18.9049998 L90.9263989,18.9049998 L90.9263989,3.03999996 M112.772599,9.17699988 C112.793499,8.3599999 112.531299,7.6379999 111.987899,7.04899991 C111.444499,6.47899992 110.745299,6.17499992 109.888399,6.17499992 C109.365899,6.17499992 108.906099,6.26999992 108.508999,6.44099992 C108.111899,6.61199992 107.773699,6.83999991 107.490599,7.10599991 C107.209399,7.37199991 106.988999,7.6949999 106.833199,8.0559999 C106.675499,8.41699989 106.586199,8.79699989 106.567199,9.17699988 L112.772599,9.17699988 Z M116.753099,16.1689998 C116.000699,17.1759998 115.048799,17.9359998 113.901199,18.4869998 C112.751699,19.0189998 111.560399,19.3039998 110.327299,19.3039998 C109.156899,19.3039998 108.054899,19.1139998 107.021299,18.7149998 C105.985799,18.3159998 105.088999,17.7649998 104.325199,17.0239998 C103.561399,16.3019998 102.960999,15.4279998 102.522099,14.4019998 C102.085099,13.3759998 101.864699,12.2359998 101.864699,10.9819999 C101.864699,9.70899988 102.085099,8.56899989 102.522099,7.54299991 C102.960999,6.51699992 103.561399,5.64299993 104.325199,4.92099994 C105.088999,4.19899995 105.985799,3.62899995 107.021299,3.22999996 C108.054899,2.84999996 109.156899,2.64099997 110.327299,2.64099997 C111.414099,2.64099997 112.400199,2.84999996 113.289399,3.22999996 C114.176699,3.62899995 114.929099,4.19899995 115.546599,4.92099994 C116.162199,5.64299993 116.637199,6.51699992 116.971599,7.54299991 C117.305999,8.56899989 117.473199,9.70899988 117.473199,10.9819999 L117.473199,12.5019998 L106.567199,12.5019998 C106.755299,13.4519998 107.161899,14.1929998 107.788899,14.7439998 C108.415899,15.2949998 109.189199,15.5799998 110.108799,15.5799998 C110.880199,15.5799998 111.533799,15.3899998 112.067699,15.0479998 C112.599699,14.6869998 113.065199,14.2119998 113.462299,13.6609998 L116.753099,16.1689998 L116.753099,16.1689998 Z M120.997698,14.8959998 C121.411898,15.7319998 122.021798,16.3779998 122.827398,16.8149998 C123.632998,17.2519998 124.482298,17.4799998 125.375298,17.4799998 C125.787598,17.4799998 126.201798,17.4039998 126.615998,17.2709998 C127.030198,17.1379998 127.400698,16.9479998 127.727498,16.7009998 C128.054298,16.4539998 128.320298,16.1499998 128.527398,15.7889998 C128.734498,15.4469998 128.838998,15.0479998 128.838998,14.5919998 C128.838998,13.8699998 128.614798,13.3189998 128.168298,12.9579998 C127.721798,12.5969998 127.172698,12.3119998 126.519098,12.1029998 C125.865498,11.8939999 125.145398,11.7229999 124.362598,11.5709999 C123.577898,11.4189999 122.859698,11.2099999 122.206098,10.8869999 C121.552498,10.5829999 121.003398,10.1649999 120.556898,9.61399988 C120.110398,9.08199989 119.886198,8.3029999 119.886198,7.29599991 C119.886198,6.53599992 120.038198,5.87099993 120.344098,5.30099993 C120.649998,4.73099994 121.047098,4.25599995 121.537298,3.87599995 C122.027498,3.51499996 122.576598,3.22999996 123.186498,3.05899996 C123.796398,2.86899996 124.415798,2.77399997 125.048498,2.77399997 C126.291098,2.77399997 127.362698,3.02099996 128.267098,3.49599996 C129.169598,3.97099995 129.872598,4.71199994 130.374198,5.73799993 L128.609098,6.82099991 C128.238598,6.09899992 127.776898,5.54799993 127.220198,5.16799994 C126.665398,4.80699994 125.941498,4.61699994 125.048498,4.61699994 C124.698898,4.61699994 124.334098,4.67399994 123.954098,4.78799994 C123.572198,4.90199994 123.228298,5.05399994 122.926198,5.26299993 C122.620298,5.47199993 122.363798,5.71899993 122.156698,6.04199992 C121.949598,6.36499992 121.846998,6.72599992 121.846998,7.14399991 C121.846998,7.8469999 122.069298,8.3599999 122.515798,8.70199989 C122.962298,9.04399989 123.513298,9.30999988 124.166898,9.49999988 C124.820498,9.68999988 125.538698,9.86099988 126.321498,9.99399987 C127.106198,10.1269999 127.826298,10.3549999 128.477998,10.6589999 C129.131598,10.9629999 129.680698,11.3999999 130.129098,11.9889998 C130.575598,12.5589998 130.797898,13.3759998 130.797898,14.4589998 C130.797898,15.2759998 130.651598,15.9789998 130.357098,16.5869998 C130.062598,17.1759998 129.659798,17.6889998 129.148698,18.0879998 C128.635698,18.5059998 128.054298,18.8099998 127.400698,19.0189998 C126.747098,19.2089998 126.061198,19.3229998 125.342998,19.3229998 C124.035798,19.3229998 122.844498,19.0569998 121.765298,18.5439998 C120.686098,18.0119998 119.853898,17.2139998 119.266799,16.1119998 L120.997698,14.8959998 M134.586498,11.0389999 C134.586498,11.9319999 134.749898,12.7679998 135.076698,13.5469998 C135.403498,14.3259998 135.849998,15.0099998 136.416198,15.5989998 C136.982398,16.1689998 137.647398,16.6249998 138.409298,16.9669998 C139.171198,17.3089998 139.999598,17.4799998 140.892598,17.4799998 C141.806498,17.4799998 142.634898,17.3089998 143.375898,16.9669998 C144.114998,16.6249998 144.747698,16.1689998 145.270198,15.5989998 C145.792698,15.0099998 146.189798,14.3259998 146.461498,13.5469998 C146.735098,12.7679998 146.869998,11.9319999 146.869998,11.0389999 C146.869998,10.1649999 146.735098,9.32899988 146.461498,8.54999989 C146.189798,7.7709999 145.792698,7.08699991 145.270198,6.49799992 C144.747698,5.92799993 144.114998,5.47199993 143.375898,5.12999994 C142.634898,4.78799994 141.806498,4.61699994 140.892598,4.61699994 C139.999598,4.61699994 139.171198,4.78799994 138.409298,5.12999994 C137.647398,5.47199993 136.982398,5.92799993 136.416198,6.49799992 C135.849998,7.08699991 135.403498,7.7709999 135.076698,8.54999989 C134.749898,9.32899988 134.586498,10.1649999 134.586498,11.0389999 Z M132.823298,3.19199996 L134.782198,3.19199996 L134.782198,5.94699993 L134.848698,5.94699993 C135.152698,5.39599993 135.534598,4.92099994 135.992498,4.54099994 C136.448498,4.14199995 136.944398,3.79999995 137.478298,3.55299996 C138.012198,3.28699996 138.572698,3.09699996 139.159798,2.96399996 C139.748798,2.84999996 140.326398,2.77399997 140.892598,2.77399997 C142.045898,2.77399997 143.107998,2.98299996 144.076998,3.38199996 C145.045998,3.79999995 145.885798,4.36999995 146.592598,5.11099994 C147.301298,5.85199993 147.850398,6.72599992 148.241798,7.7329999 C148.635098,8.73999989 148.830798,9.84199988 148.830798,11.0389999 C148.830798,12.2549998 148.635098,13.3569998 148.241798,14.3639998 C147.850398,15.3709998 147.301298,16.2449998 146.592598,16.9859998 C145.885798,17.7269998 145.045998,18.2969998 144.076998,18.6959998 C143.107998,19.1139998 142.045898,19.3229998 140.892598,19.3229998 C140.326398,19.3229998 139.748798,19.2469998 139.159798,19.1329998 C138.572698,18.9999998 138.012198,18.8099998 137.478298,18.5439998 C136.944398,18.2969998 136.448498,17.9549998 135.992498,17.5559998 C135.534598,17.1759998 135.152698,16.7009998 134.848698,16.1499998 L134.782198,16.1499998 L134.782198,26.6759997 L132.823298,26.6759997 L132.823298,3.19199996 L132.823298,3.19199996 Z M159.022398,11.0199999 C158.195898,11.0199999 157.394098,11.0769999 156.622698,11.1909999 C155.849398,11.3049999 155.152098,11.4949999 154.530798,11.7609999 C153.911398,12.0269998 153.415498,12.4069998 153.044998,12.8439998 C152.674498,13.2999998 152.490198,13.8699998 152.490198,14.5539998 C152.490198,15.0289998 152.592798,15.4469998 152.799898,15.8269998 C153.006998,16.2069998 153.272998,16.5109998 153.599798,16.7389998 C153.926598,16.9859998 154.291398,17.1759998 154.694198,17.2899998 C155.096998,17.4229998 155.505498,17.4799998 155.919698,17.4799998 C156.964698,17.4799998 157.825398,17.3279998 158.499898,17.0049998 C159.176298,16.6819998 159.713998,16.2639998 160.116798,15.7699998 C160.519598,15.2569998 160.798898,14.6679998 160.950898,14.0219998 C161.102898,13.3759998 161.180798,12.7299998 161.180798,12.0649998 L161.180798,11.0199999 L159.022398,11.0199999 Z M162.943998,12.3119998 C162.943998,13.0719998 162.947798,13.7749998 162.959198,14.3829998 C162.970598,14.9909998 162.987698,15.5609998 163.008598,16.0929998 C163.031398,16.6059998 163.057998,17.0999998 163.090298,17.5559998 C163.122598,17.9929998 163.171998,18.4489998 163.238498,18.9049998 L161.408798,18.9049998 C161.277698,18.1449998 161.211198,17.2899998 161.211198,16.3589998 L161.146598,16.3589998 C160.580398,17.3849998 159.877398,18.1259998 159.039498,18.6009998 C158.201598,19.0759998 157.139498,19.3229998 155.855098,19.3229998 C155.201498,19.3229998 154.559298,19.2279998 153.926598,19.0569998 C153.295798,18.8859998 152.729598,18.6199998 152.227998,18.2399998 C151.726398,17.8789998 151.317898,17.3849998 151.002498,16.7959998 C150.687098,16.2069998 150.529398,15.5039998 150.529398,14.6489998 C150.529398,13.4519998 150.823898,12.5019998 151.410998,11.7989999 C151.999998,11.0959999 152.723898,10.5639999 153.584598,10.2219999 C154.443398,9.86099988 155.359198,9.63299988 156.328198,9.53799988 C157.297198,9.42399988 158.152198,9.38599988 158.893198,9.38599988 L161.180798,9.38599988 L161.180798,8.43599989 C161.180798,7.06799991 160.776098,6.09899992 159.970498,5.50999993 C159.164898,4.90199994 158.152198,4.61699994 156.932398,4.61699994 C155.190098,4.61699994 153.654898,5.20599993 152.326798,6.38399992 L151.182998,4.99699994 C151.901198,4.25599995 152.794198,3.70499995 153.861998,3.34399996 C154.929798,2.96399996 155.951998,2.77399997 156.932398,2.77399997 C158.762098,2.77399997 160.221298,3.22999996 161.309998,4.12299995 C162.398698,5.01599994 162.943998,6.45999992 162.943998,8.45499989 L162.943998,12.3119998 L162.943998,12.3119998 Z M178.689298,16.5869998 C177.948298,17.5179998 177.110398,18.2019998 176.175598,18.6579998 C175.236998,19.0949998 174.224298,19.3229998 173.135598,19.3229998 C171.982298,19.3229998 170.914498,19.1139998 169.935998,18.6959998 C168.955598,18.2969998 168.115798,17.7269998 167.420398,16.9859998 C166.723098,16.2449998 166.177798,15.3709998 165.786398,14.3639998 C165.393098,13.3569998 165.199298,12.2549998 165.199298,11.0389999 C165.199298,9.84199988 165.393098,8.73999989 165.786398,7.7329999 C166.177798,6.72599992 166.723098,5.85199993 167.420398,5.11099994 C168.115798,4.36999995 168.955598,3.79999995 169.935998,3.38199996 C170.914498,2.98299996 171.982298,2.77399997 173.135598,2.77399997 C174.247098,2.77399997 175.276898,3.02099996 176.223098,3.49599996 C177.171198,3.97099995 178.014798,4.63599994 178.755798,5.50999993 L177.188298,6.72599992 C176.620198,6.06099992 176.000798,5.54799993 175.324398,5.16799994 C174.649898,4.80699994 173.920298,4.61699994 173.135598,4.61699994 C172.221698,4.61699994 171.395198,4.78799994 170.654198,5.12999994 C169.913198,5.47199993 169.282398,5.92799993 168.757998,6.49799992 C168.235498,7.08699991 167.838398,7.7709999 167.566698,8.54999989 C167.294998,9.32899988 167.158198,10.1649999 167.158198,11.0389999 C167.158198,11.9319999 167.294998,12.7679998 167.566698,13.5469998 C167.838398,14.3259998 168.235498,15.0099998 168.757998,15.5989998 C169.282398,16.1689998 169.913198,16.6249998 170.654198,16.9669998 C171.395198,17.3089998 172.221698,17.4799998 173.135598,17.4799998 C173.963998,17.4799998 174.722098,17.2899998 175.406098,16.8909998 C176.093898,16.4919998 176.686698,15.9599998 177.188298,15.2949998 L178.689298,16.5869998 M192.770198,9.72799988 C192.770198,9.02499989 192.633398,8.3599999 192.361698,7.7519999 C192.089998,7.14399991 191.719498,6.59299992 191.252098,6.13699992 C190.782798,5.66199993 190.227998,5.30099993 189.585798,5.01599994 C188.941698,4.74999994 188.261498,4.61699994 187.543298,4.61699994 C186.477398,4.61699994 185.588198,4.84499994 184.881398,5.30099993 C184.172698,5.75699993 183.612198,6.26999992 183.197998,6.85899991 C182.783798,7.44799991 182.491198,8.0179999 182.316398,8.58799989 C182.141598,9.13899989 182.054198,9.51899988 182.054198,9.72799988 L192.770198,9.72799988 Z M194.273098,15.9409998 C193.511198,17.1569998 192.568798,18.0119998 191.447798,18.5439998 C190.324898,19.0569998 189.089898,19.3229998 187.740898,19.3229998 C186.583798,19.3229998 185.538798,19.1139998 184.603998,18.6959998 C183.667298,18.2969998 182.859798,17.7269998 182.185298,16.9859998 C181.510798,16.2449998 180.993998,15.3709998 180.634898,14.3639998 C180.275798,13.3569998 180.095298,12.2359998 180.095298,11.0199999 C180.095298,9.84199988 180.279598,8.73999989 180.650098,7.7519999 C181.020598,6.74499992 181.543098,5.88999993 182.217598,5.14899994 C182.893998,4.40799994 183.688198,3.81899995 184.603998,3.40099996 C185.517898,2.98299996 186.530598,2.77399997 187.642098,2.77399997 C188.795398,2.77399997 189.813798,2.98299996 190.695398,3.40099996 C191.578898,3.81899995 192.317998,4.38899994 192.918398,5.07299994 C193.516898,5.77599993 193.967198,6.55499992 194.273098,7.44799991 C194.577098,8.3219999 194.730998,9.21499988 194.730998,10.1269999 L194.730998,11.5519999 L182.054198,11.5519999 C182.054198,11.9889998 182.135898,12.5399998 182.299298,13.2049998 C182.462698,13.8699998 182.762898,14.5349998 183.197998,15.1619998 C183.633098,15.8079998 184.216398,16.3399998 184.945998,16.7959998 C185.675598,17.2519998 186.617998,17.4799998 187.771298,17.4799998 C188.774498,17.4799998 189.743498,17.2329998 190.680198,16.7389998 C191.614998,16.2259998 192.335098,15.5419998 192.834798,14.6869998 L194.273098,15.9409998 L194.273098,15.9409998 Z" id="Combined-Shape" fill="#FFFFFF"></path>
                    <path d="M31.2245996,23.9399997 C31.0877996,23.7689997 30.9015996,23.6549997 30.6697996,23.5599997 C30.4360996,23.4839997 30.2137996,23.4459997 30.0066996,23.4459997 L29.6285996,23.4839997 L29.2618996,23.6169997 L28.9825996,23.8639997 L28.8742996,24.2249997 C28.8742996,24.4529997 28.9616996,24.6239997 29.1345996,24.7569997 C29.3055996,24.8709997 29.5221996,24.9849997 29.7862996,25.0609997 C30.0465996,25.1559997 30.3296996,25.2319997 30.6317996,25.3269997 C30.9338996,25.4029997 31.2150996,25.5359997 31.4772996,25.6879997 C31.7394996,25.8589997 31.9560996,26.0679997 32.1289996,26.3339997 C32.3018996,26.5999997 32.3873996,26.9419997 32.3873996,27.3979997 C32.3873996,27.8159997 32.3075996,28.1959996 32.1498996,28.4999996 C31.9921996,28.8229996 31.7793996,29.0889996 31.5095996,29.2979996 C31.2397996,29.5069996 30.9281996,29.6589996 30.5728996,29.7539996 C30.2156996,29.8489996 29.8413996,29.9059996 29.4461996,29.9059996 C28.9502996,29.9059996 28.4904996,29.8299996 28.0667996,29.6779996 C27.6430997,29.5259996 27.2478997,29.2789996 26.8811997,28.9369996 L28.0762996,27.6259997 C28.2491996,27.8539997 28.4676996,28.0439996 28.7298996,28.1579996 C28.9920996,28.2909996 29.2618996,28.3479996 29.5430996,28.3479996 L29.9572996,28.3099996 L30.3353996,28.1579996 L30.6032996,27.9109996 L30.7058996,27.5499997 C30.7058996,27.3219997 30.6184996,27.1509997 30.4417996,27.0179997 C30.2669996,26.8849997 30.0465996,26.7709997 29.7805996,26.6759997 C29.5145996,26.5809997 29.2276996,26.4859997 28.9179996,26.3909997 C28.6082996,26.2959997 28.3213996,26.1819997 28.0553996,26.0109997 C27.7893997,25.8589997 27.5689997,25.6499997 27.3941997,25.3839997 C27.2174997,25.1369997 27.1300997,24.7949997 27.1300997,24.3579997 C27.1300997,23.9589997 27.2098997,23.5979997 27.3713997,23.2939997 C27.5328997,22.9899997 27.7494997,22.7239997 28.0173996,22.5149997 C28.2871996,22.3059997 28.5987996,22.1539997 28.9502996,22.0399997 C29.3017996,21.9449997 29.6646996,21.8879997 30.0389996,21.8879997 C30.4702996,21.8879997 30.8863996,21.9449997 31.2891996,22.0779997 C31.6900996,22.1919997 32.0529996,22.4009997 32.3778996,22.6859997 L31.2245996,23.9399997 M34.8079996,22.0779997 L39.9911995,22.0779997 L39.9911995,23.6359997 L36.4894995,23.6359997 L36.4894995,25.0609997 L39.7973995,25.0609997 L39.7973995,26.5999997 L36.4894995,26.5999997 L36.4894995,28.1579996 L40.1849995,28.1579996 L40.1849995,29.7159996 L34.8079996,29.7159996 L34.8079996,22.0779997 M42.7043995,22.0779997 L44.3839994,22.0779997 L44.3839994,28.1579996 L47.4999994,28.1579996 L47.4999994,29.7159996 L42.7043995,29.7159996 L42.7043995,22.0779997 M49.5975994,22.0779997 L54.7142993,22.0779997 L54.7142993,23.6359997 L51.2771994,23.6359997 L51.2771994,25.1939997 L54.4558993,25.1939997 L54.4558993,26.7329997 L51.2771994,26.7329997 L51.2771994,29.7159996 L49.5975994,29.7159996 L49.5975994,22.0779997 M64.6892992,23.9399997 C64.5543992,23.7689997 64.3681992,23.6549997 64.1344992,23.5599997 C63.9007992,23.4839997 63.6803992,23.4459997 63.4732992,23.4459997 L63.0951992,23.4839997 L62.7284992,23.6169997 L62.4491992,23.8639997 L62.3408992,24.2249997 C62.3408992,24.4529997 62.4263992,24.6239997 62.5992992,24.7569997 C62.7721992,24.8709997 62.9887992,24.9849997 63.2509992,25.0609997 C63.5131992,25.1559997 63.7962992,25.2319997 64.0964992,25.3269997 C64.3985992,25.4029997 64.6816992,25.5359997 64.9419992,25.6879997 C65.2041992,25.8589997 65.4226992,26.0679997 65.5955992,26.3339997 C65.7665992,26.5999997 65.8539992,26.9419997 65.8539992,27.3979997 C65.8539992,27.8159997 65.7741992,28.1959996 65.6164992,28.4999996 C65.4587992,28.8229996 65.2440992,29.0889996 64.9761992,29.2979996 C64.7063992,29.5069996 64.3928992,29.6589996 64.0375992,29.7539996 C63.6822992,29.8489996 63.3060992,29.9059996 62.9127992,29.9059996 C62.4168992,29.9059996 61.9570992,29.8299996 61.5333992,29.6779996 C61.1096992,29.5259996 60.7144992,29.2789996 60.3477992,28.9369996 L61.5428992,27.6259997 C61.7157992,27.8539997 61.9323992,28.0439996 62.1945992,28.1579996 C62.4567992,28.2909996 62.7284992,28.3479996 63.0096992,28.3479996 L63.4238992,28.3099996 L63.8000992,28.1579996 L64.0698992,27.9109996 L64.1724992,27.5499997 C64.1724992,27.3219997 64.0850992,27.1509997 63.9083992,27.0179997 C63.7316992,26.8849997 63.5112992,26.7709997 63.2452992,26.6759997 C62.9792992,26.5809997 62.6923992,26.4859997 62.3845992,26.3909997 C62.0748992,26.2959997 61.7879992,26.1819997 61.5219992,26.0109997 C61.2559992,25.8589997 61.0355992,25.6499997 60.8588992,25.3839997 C60.6840992,25.1369997 60.5947992,24.7949997 60.5947992,24.3579997 C60.5947992,23.9589997 60.6764992,23.5979997 60.8379992,23.2939997 C60.9994992,22.9899997 61.2141992,22.7239997 61.4839992,22.5149997 C61.7537992,22.3059997 62.0634992,22.1539997 62.4168992,22.0399997 C62.7683992,21.9449997 63.1312992,21.8879997 63.5036992,21.8879997 C63.9349992,21.8879997 64.3529992,21.9449997 64.7538992,22.0779997 C65.1566992,22.1919997 65.5195992,22.4009997 65.8425992,22.6859997 L64.6892992,23.9399997 M69.6862991,23.5599997 L67.5088992,23.5599997 L67.5088992,22.0779997 L73.5451991,22.0779997 L73.5451991,23.5599997 L71.3677991,23.5599997 L71.3677991,29.7159996 L69.6862991,29.7159996 L69.6862991,23.5599997 M76.837899,25.8969997 C76.837899,26.2579997 76.892999,26.5809997 77.005099,26.8849997 C77.117199,27.1889997 77.276799,27.4359997 77.485799,27.6639997 C77.692899,27.8729997 77.941799,28.0439996 78.234399,28.1769996 C78.525099,28.2909996 78.849999,28.3479996 79.209099,28.3479996 C79.568199,28.3479996 79.893099,28.2909996 80.183799,28.1769996 C80.474499,28.0439996 80.723399,27.8729997 80.932399,27.6639997 C81.141399,27.4359997 81.300999,27.1889997 81.413099,26.8849997 C81.523299,26.5809997 81.580299,26.2579997 81.580299,25.8969997 C81.580299,25.5359997 81.523299,25.2129997 81.413099,24.9089997 C81.300999,24.6049997 81.141399,24.3579997 80.932399,24.1299997 C80.723399,23.9209997 80.474499,23.7499997 80.183799,23.6169997 C79.893099,23.5029997 79.568199,23.4459997 79.209099,23.4459997 C78.849999,23.4459997 78.525099,23.5029997 78.234399,23.6169997 C77.941799,23.7499997 77.692899,23.9209997 77.485799,24.1299997 C77.276799,24.3579997 77.117199,24.6049997 77.005099,24.9089997 C76.892999,25.2129997 76.837899,25.5359997 76.837899,25.8969997 Z M75.0936991,25.8969997 C75.0936991,25.2889997 75.1943991,24.7379997 75.3995991,24.2439997 C75.6047991,23.7499997 75.889799,23.3129997 76.256499,22.9709997 C76.623199,22.6289997 77.056399,22.3629997 77.559899,22.1729997 C78.063399,21.9829997 78.612499,21.8879997 79.209099,21.8879997 C79.803799,21.8879997 80.354799,21.9829997 80.858299,22.1729997 C81.359899,22.3629997 81.794999,22.6289997 82.161699,22.9709997 C82.528399,23.3129997 82.813399,23.7499997 83.018599,24.2439997 C83.223799,24.7379997 83.324499,25.2889997 83.324499,25.8969997 C83.324499,26.5049997 83.223799,27.0559997 83.018599,27.5499997 C82.813399,28.0439996 82.528399,28.4809996 82.161699,28.8229996 C81.794999,29.1649996 81.359899,29.4309996 80.858299,29.6209996 C80.354799,29.8109996 79.803799,29.9059996 79.209099,29.9059996 C78.612499,29.9059996 78.063399,29.8109996 77.559899,29.6209996 C77.056399,29.4309996 76.623199,29.1649996 76.256499,28.8229996 C75.889799,28.4809996 75.6047991,28.0439996 75.3995991,27.5499997 C75.1943991,27.0559997 75.0936991,26.5049997 75.0936991,25.8969997 L75.0936991,25.8969997 Z M87.2555989,25.2319997 L88.7261989,25.2319997 L89.1840989,25.1179997 L89.5241989,24.8709997 C89.6134989,24.7569997 89.6590989,24.6049997 89.6590989,24.3959997 C89.6590989,24.1869997 89.6191989,24.0349997 89.5393989,23.9209997 L89.2372989,23.6549997 L88.8173989,23.5409997 L88.3537989,23.5029997 L87.2555989,23.5029997 L87.2555989,25.2319997 Z M85.5740989,22.0779997 L88.5266989,22.0779997 C88.9142989,22.0779997 89.2828989,22.1159997 89.6305989,22.1919997 C89.9801989,22.2679997 90.2841989,22.4009997 90.5482989,22.5719997 C90.8085989,22.7429997 91.0175989,22.9899997 91.1714989,23.2749997 C91.3253989,23.5789997 91.4032989,23.9589997 91.4032989,24.3959997 C91.4032989,24.9469997 91.2626989,25.4029997 90.9833989,25.7639997 C90.7040989,26.1439997 90.2936989,26.3909997 89.7559989,26.4859997 L91.6939988,29.7159996 L89.6799989,29.7159996 L88.0839989,26.6569997 L87.2555989,26.6569997 L87.2555989,29.7159996 L85.5740989,29.7159996 L85.5740989,22.0779997 L85.5740989,22.0779997 Z M96.8201988,24.3009997 L95.8929988,26.6759997 L97.7568988,26.6759997 L96.8201988,24.3009997 Z M96.1722988,22.0779997 L97.5630988,22.0779997 L100.882399,29.7159996 L98.9861988,29.7159996 L98.3287988,28.1009996 L95.3647988,28.1009996 L94.7301988,29.7159996 L92.8757988,29.7159996 L96.1722988,22.0779997 L96.1722988,22.0779997 Z M109.662299,29.1649996 C109.166399,29.4309996 108.649599,29.6209996 108.109999,29.7349996 C107.570399,29.8489996 107.021299,29.9059996 106.460799,29.9059996 C105.864199,29.9059996 105.315099,29.8109996 104.813499,29.6209996 C104.309999,29.4309996 103.874899,29.1649996 103.508199,28.8229996 C103.141499,28.4809996 102.856499,28.0439996 102.653199,27.5499997 C102.447999,27.0559997 102.345399,26.5049997 102.345399,25.8969997 C102.345399,25.2889997 102.447999,24.7379997 102.653199,24.2439997 C102.856499,23.7499997 103.141499,23.3129997 103.508199,22.9709997 C103.874899,22.6289997 104.309999,22.3629997 104.813499,22.1729997 C105.315099,21.9829997 105.864199,21.8879997 106.460799,21.8879997 C107.072599,21.8879997 107.633099,21.9639997 108.147999,22.1159997 C108.660999,22.2489997 109.111299,22.5149997 109.498899,22.8759997 L108.315199,24.1679997 C108.085299,23.9209997 107.826899,23.7499997 107.538099,23.6169997 C107.251199,23.5029997 106.892099,23.4459997 106.460799,23.4459997 C106.101699,23.4459997 105.776799,23.5029997 105.486099,23.6169997 C105.195399,23.7499997 104.944599,23.9209997 104.737499,24.1299997 C104.528499,24.3579997 104.368899,24.6049997 104.256799,24.9089997 C104.146599,25.2129997 104.089599,25.5359997 104.089599,25.8969997 C104.089599,26.2579997 104.146599,26.5809997 104.256799,26.8849997 C104.368899,27.1889997 104.528499,27.4359997 104.737499,27.6639997 C104.944599,27.8729997 105.195399,28.0439996 105.486099,28.1769996 C105.776799,28.2909996 106.101699,28.3479996 106.460799,28.3479996 C106.827499,28.3479996 107.142899,28.3099996 107.408899,28.2339996 C107.674899,28.1389996 107.885799,28.0629996 108.045399,27.9679996 L108.045399,26.7329997 L106.677399,26.7329997 L106.677399,25.1939997 L109.662299,25.1939997 L109.662299,29.1649996 M112.308999,22.0779997 L117.492199,22.0779997 L117.492199,23.6359997 L113.990499,23.6359997 L113.990499,25.0609997 L117.298399,25.0609997 L117.298399,26.5999997 L113.990499,26.5999997 L113.990499,28.1579996 L117.685999,28.1579996 L117.685999,29.7159996 L112.308999,29.7159996 L112.308999,22.0779997" id="Combined-Shape" fill="#E0E8EC" opacity="0.7"></path>
                    <path d="M21.1887997,20.2919997 L21.3217997,20.3869997 L21.3217997,21.9069997 C21.3217997,23.4649997 20.4933997,24.9089997 19.1500998,25.6689997 L12.8363998,29.3169996 C11.4911999,30.0959996 9.83629988,30.0959996 8.49299989,29.3169996 L7.16109991,28.5569996 L7.16109991,28.4049996 L21.1887997,20.2919997 Z M12.8363998,7.21999991 L14.0333998,7.9039999 L14.0333998,8.2079999 L5.09389994,13.3759998 C4.17999995,13.8889998 3.62899995,14.8769998 3.65559995,15.9409998 L3.67459995,16.6439998 L3.82849995,16.7389998 L16.4615998,9.44299988 L16.6819998,9.44299988 L19.1500998,10.8679999 C20.4933997,11.6469999 21.3217997,13.0719998 21.3217997,14.6299998 L21.3217997,17.4799998 L21.2324997,17.6509998 L4.83169994,27.1129997 L4.66449994,27.1129997 C4.66449994,27.1129997 1.61119998,25.3459997 1.31669998,25.1749997 L1.33569998,24.9849997 C2.0383885,24.5831964 5.71622882,22.4626616 9.41300878,20.3297716 L10.1517414,19.9035345 C13.7150357,17.8474795 17.111867,15.8861801 17.6718998,15.5609998 L17.7782998,15.4089998 C17.8200998,15.2189998 17.8770998,14.7439998 17.6053998,14.2689998 C17.3336998,13.7939998 16.9080998,13.6229998 16.7180998,13.5659998 L16.5413998,13.5849998 C15.3766998,14.2499998 1.63019998,22.1919997 0.172899998,23.0279997 L2.84217094e-14,22.9329997 L0.000890624989,21.4913747 C0.000939204534,21.4191531 0.000989256186,21.345008 0.00104064612,21.2691222 L0.00189513756,20.0231483 C0.00195656459,19.9344284 0.00201866076,19.8448824 0.00208129224,19.754693 L0.00284999996,18.6532498 C0.00291477269,18.5608407 0.00297954542,18.4685199 0.00304418432,18.3764704 L0.0039870022,17.0389314 L0.00407631563,16.9126963 L0.00495056342,15.6807276 L0.0050175945,15.586535 L0.00569999993,14.6299998 C0.00569999993,13.0719998 0.83409999,11.6469999 2.17739997,10.8679999 L8.49299989,7.21999991 C9.83629988,6.44099992 11.4911999,6.44099992 12.8363998,7.21999991 Z M10.6855999,0 C15.3633998,0 19.2089998,3.59099995 19.5433998,8.0939999 L19.2564998,8.2649999 L16.2544998,6.53599992 L16.1803998,6.44099992 C15.2854998,4.33199995 13.1441998,2.84999996 10.6456999,2.84999996 C8.1452999,2.84999996 6.00589992,4.35099995 5.12999994,6.49799992 L5.05589994,6.57399992 L2.07479997,8.3029999 L1.78789998,8.1319999 C2.05959997,3.60999995 5.94319993,0 10.6855999,0 Z" id="logo-icon" fill="#4B9CED"></path>
                    <path d="M200,3 C198.342969,3 197,4.34296882 197,6 C197,7.65703118 198.342969,9 200,9 C201.657031,9 203,7.65703118 203,6 C203,4.34296882 201.657031,3 200,3 Z M200,8.4375 C198.655859,8.4375 197.5625,7.34402347 197.5625,6 C197.5625,4.65597653 198.655859,3.5625 200,3.5625 C201.344141,3.5625 202.4375,4.65597653 202.4375,6 C202.4375,7.34402347 201.344141,8.4375 200,8.4375 Z M201.125,5.4375 C201.125,4.92035151 200.704531,4.5 200.1875,4.5 L199.15625,4.5 C199.000977,4.5 198.875,4.62597656 198.875,4.78125 L198.875,7.21875 C198.875,7.37402344 199.000977,7.5 199.15625,7.5 C199.311523,7.5 199.4375,7.37402344 199.4375,7.21875 L199.4375,6.375 L200.138164,6.375 L200.588867,7.33816409 C200.636328,7.4402343 200.738281,7.5 200.84375,7.5 C200.884039,7.5 200.924316,7.49157786 200.963164,7.47363281 C201.103789,7.40771484 201.164258,7.24031246 201.098633,7.09933591 L200.69,6.22628903 C200.950391,6.0597657 201.125,5.76914066 201.125,5.4375 Z M200.1875,5.8125 L199.4375,5.8125 L199.4375,5.0625 L200.1875,5.0625 C200.394453,5.0625 200.5625,5.23054683 200.5625,5.4375 C200.5625,5.64445317 200.394922,5.8125 200.1875,5.8125 Z" id="Shape" fill="#FFFFFF" fill-rule="nonzero"></path>
                </g>
            </g>
        </g>
    </g>
</svg>