<?xml version="1.0" encoding="UTF-8"?>
<svg width="200px" height="30px" viewBox="0 0 200 30" version="1.1" xmlns="http://www.w3.org/2000/svg" xmlns:xlink="http://www.w3.org/1999/xlink">
    <title>logo-dark</title>
    <g id="Brand" stroke="none" stroke-width="1" fill="none" fill-rule="evenodd">
        <g id="Web-Brand" transform="translate(-155, -93)">
            <g id="logo-dark" transform="translate(155, 93)">
                <path d="M36.3211165,7.68640777 C35.6357767,6.79660194 34.728932,6.36116505 33.6043689,6.36116505 C33.2086893,6.36116505 32.8243689,6.45582524 32.4495146,6.64514563 C32.0746602,6.83446602 31.887233,7.17524272 31.887233,7.64854369 C31.887233,8.0461165 32.0803398,8.33009709 32.4646602,8.51941748 C32.8489806,8.70873786 33.3393204,8.86019417 33.9337864,9.01165049 C34.5263592,9.14417476 35.1605825,9.29563107 35.8383495,9.46601942 C36.5142233,9.61747573 37.1503398,9.88252427 37.7429126,10.223301 C38.3373786,10.5640777 38.8258252,11.0373786 39.2120388,11.6432039 C39.5963592,12.2300971 39.789466,13.0252427 39.789466,14.0286408 C39.789466,15.0509709 39.575534,15.8839806 39.1476699,16.5466019 C38.721699,17.2092233 38.1745631,17.7393204 37.5081553,18.1368932 C36.8417476,18.5533981 36.093932,18.8184466 35.2609223,18.988835 C34.4279126,19.1592233 33.6043689,19.2349515 32.7921845,19.2349515 C31.7319903,19.2349515 30.6585437,19.0834951 29.5756311,18.7616505 C28.4927184,18.4398058 27.578301,17.8907767 26.8285922,17.0956311 L29.6702913,13.8014563 C30.1076214,14.3694175 30.5903883,14.7859223 31.1223786,15.088835 C31.6524757,15.3728155 32.2715534,15.5242718 32.9796117,15.5242718 C33.521068,15.5242718 34.0114078,15.4485437 34.4487379,15.2781553 C34.886068,15.126699 35.1037864,14.8237864 35.1037864,14.3883495 C35.1037864,13.9718447 34.9106796,13.668932 34.5263592,13.4606796 C34.1401456,13.2524272 33.651699,13.0820388 33.0591262,12.9305825 C32.4646602,12.7980583 31.8304369,12.6466019 31.1526699,12.4762136 C30.4767961,12.3247573 29.8406796,12.0786408 29.2481068,11.7567961 C28.655534,11.4349515 28.1651942,10.9616505 27.7808738,10.3747573 C27.3946602,9.76893204 27.2034466,8.97378641 27.2034466,7.97038835 C27.2034466,7.04271845 27.3851942,6.24757282 27.7486893,5.56601942 C28.1121845,4.90339806 28.5930583,4.35436893 29.1856311,3.91893204 C29.7800971,3.48349515 30.4616505,3.16165049 31.2321845,2.95339806 C32.0008252,2.74514563 32.7827184,2.65048544 33.5740777,2.65048544 C34.5736893,2.65048544 35.582767,2.80194175 36.6032039,3.10485437 C37.6217476,3.40776699 38.4869417,3.93786408 39.195,4.73300971 L36.3211165,7.68640777 M51.8132039,9.14417476 C51.8340291,8.33009709 51.572767,7.61067961 51.0313107,7.04271845 C50.4898544,6.45582524 49.7931553,6.15291262 48.9393204,6.15291262 C48.4186893,6.15291262 47.960534,6.24757282 47.5648544,6.41796117 C47.1691748,6.58834951 46.8302913,6.81553398 46.5500971,7.08058252 C46.2699029,7.34563107 46.0502913,7.66747573 45.8950485,8.02718447 C45.7379126,8.3868932 45.648932,8.76553398 45.6281068,9.14417476 L51.8132039,9.14417476 Z M55.7775728,16.111165 C55.0297573,17.1145631 54.0812621,17.8718447 52.9358738,18.4208738 C51.7923786,18.9699029 50.6053398,19.2349515 49.3766505,19.2349515 C48.2104369,19.2349515 47.1123786,19.0456311 46.0824757,18.6480583 C45.0506796,18.2504854 44.1551942,17.7014563 43.3960194,16.9820388 C42.6349515,16.2436893 42.036699,15.3728155 41.5993689,14.3504854 C41.1620388,13.3281553 40.9443204,12.192233 40.9443204,10.9427184 C40.9443204,9.67427184 41.1620388,8.53834951 41.5993689,7.51601942 C42.036699,6.51262136 42.6349515,5.62281553 43.3960194,4.90339806 C44.1551942,4.18398058 45.0506796,3.61601942 46.0824757,3.23737864 C47.1123786,2.83980583 48.2104369,2.65048544 49.3766505,2.65048544 C50.4595631,2.65048544 51.4421359,2.83980583 52.3262621,3.23737864 C53.2122816,3.61601942 53.9619903,4.18398058 54.5753883,4.90339806 C55.1906796,5.62281553 55.6639806,6.51262136 55.9971845,7.51601942 C56.3303883,8.53834951 56.4969903,9.67427184 56.4969903,10.9427184 L56.4969903,12.4762136 L45.6281068,12.4762136 C45.8174272,13.4038835 46.2225728,14.142233 46.8473301,14.6912621 C47.4720874,15.2402913 48.2407282,15.5242718 49.1570388,15.5242718 C49.9275728,15.5242718 50.578835,15.3538835 51.108932,14.9941748 C51.6409223,14.634466 52.1028641,14.161165 52.4985437,13.6121359 L55.7775728,16.111165 L55.7775728,16.111165 Z M68.8331068,8.1407767 C68.6040291,7.8 68.2802913,7.49708738 67.8637864,7.26990291 C67.4472816,7.04271845 67.0004854,6.92912621 66.5215049,6.92912621 C65.334466,6.92912621 64.4143689,7.30776699 63.7574272,8.0461165 C63.1023786,8.78446602 62.7748544,9.75 62.7748544,10.9427184 C62.7748544,12.1354369 63.1023786,13.1009709 63.7574272,13.8393204 C64.4143689,14.5776699 65.334466,14.9373786 66.5215049,14.9373786 C67.0421359,14.9373786 67.4908252,14.8237864 67.8637864,14.5776699 C68.240534,14.3504854 68.5623786,14.0665049 68.8331068,13.7446602 L71.9247087,17.1145631 C71.1958252,17.9097087 70.3363107,18.4398058 69.3480583,18.7616505 C68.3598058,19.0834951 67.4169903,19.2349515 66.5215049,19.2349515 C65.3552913,19.2349515 64.257233,19.0456311 63.2273301,18.6480583 C62.195534,18.2504854 61.3019417,17.7014563 60.5408738,16.9820388 C59.781699,16.2436893 59.1815534,15.3728155 58.7442233,14.3504854 C58.3068932,13.3281553 58.0891748,12.192233 58.0891748,10.9427184 C58.0891748,9.67427184 58.3068932,8.53834951 58.7442233,7.51601942 C59.1815534,6.51262136 59.781699,5.62281553 60.5408738,4.90339806 C61.3019417,4.18398058 62.195534,3.61601942 63.2273301,3.23737864 C64.257233,2.83980583 65.3552913,2.65048544 66.5215049,2.65048544 C67.4169903,2.65048544 68.3598058,2.80194175 69.3480583,3.12378641 C70.3363107,3.42669903 71.1958252,3.97572816 71.9247087,4.75194175 L68.8331068,8.1407767 M88.0699515,18.8373786 L83.5735922,18.8373786 L83.5735922,16.6980583 L83.5111165,16.6980583 C83.3445146,17.0009709 83.1305825,17.3038835 82.8712136,17.6067961 C82.6099515,17.9097087 82.2937864,18.1747573 81.9170388,18.4208738 C81.5440777,18.6669903 81.1162136,18.8563107 80.637233,19.007767 C80.1582524,19.1592233 79.6395146,19.2349515 79.0753398,19.2349515 C77.8901942,19.2349515 76.9265534,19.0456311 76.1882039,18.6669903 C75.4479612,18.2883495 74.8762136,17.7582524 74.4691748,17.0956311 C74.0640291,16.4140777 73.793301,15.618932 73.6569903,14.7101942 C73.5225728,13.8014563 73.4544175,12.8169903 73.4544175,11.7567961 L73.4544175,3.02912621 L78.1400971,3.02912621 L78.1400971,10.7723301 C78.1400971,11.226699 78.1552427,11.7 78.185534,12.192233 C78.2177184,12.684466 78.3104854,13.138835 78.4676214,13.5364078 C78.6228641,13.9529126 78.863301,14.2936893 79.1851456,14.5587379 C79.5069903,14.8048544 79.9708252,14.9373786 80.5747573,14.9373786 C81.1786893,14.9373786 81.6690291,14.8237864 82.0419903,14.5966019 C82.4187379,14.3694175 82.7046117,14.0665049 82.9015049,13.6878641 C83.1002913,13.3092233 83.2290291,12.8737864 83.2915049,12.4004854 C83.3539806,11.9271845 83.386165,11.4349515 83.386165,10.9048544 L83.386165,3.02912621 L88.0699515,3.02912621 L88.0699515,18.8373786 M90.5992718,3.02912621 L95.2849515,3.02912621 L95.2849515,5.56601942 L95.3474272,5.56601942 C95.847233,4.60048544 96.4398058,3.86213592 97.1270388,3.36990291 C97.8142718,2.8776699 98.6775728,2.65048544 99.718835,2.65048544 C99.9895631,2.65048544 100.260291,2.65048544 100.531019,2.66941748 C100.801748,2.68834951 101.05165,2.74514563 101.280728,2.80194175 L101.280728,7.26990291 C100.947524,7.15631068 100.62,7.08058252 100.296262,7.02378641 C99.9744175,6.96699029 99.635534,6.92912621 99.2815049,6.92912621 C98.3860194,6.92912621 97.6779612,7.06165049 97.1573301,7.32669903 C96.6385922,7.59174757 96.237233,7.95145631 95.9551456,8.42475728 C95.6749515,8.87912621 95.4913107,9.44708738 95.4099029,10.0907767 C95.3266019,10.734466 95.2849515,11.4538835 95.2849515,12.2490291 L95.2849515,18.8373786 L90.5992718,18.8373786 L90.5992718,3.02912621 M112.36733,9.14417476 C112.388155,8.33009709 112.128786,7.61067961 111.58733,7.04271845 C111.045874,6.45582524 110.347282,6.15291262 109.49534,6.15291262 C108.974709,6.15291262 108.51466,6.24757282 108.120874,6.41796117 C107.725194,6.58834951 107.386311,6.81553398 107.106117,7.08058252 C106.824029,7.34563107 106.606311,7.66747573 106.449175,8.02718447 C106.293932,8.3868932 106.204951,8.76553398 106.184126,9.14417476 L112.36733,9.14417476 Z M116.333592,16.111165 C115.583883,17.1145631 114.637282,17.8718447 113.491893,18.4208738 C112.346505,18.9699029 111.159466,19.2349515 109.93267,19.2349515 C108.764563,19.2349515 107.668398,19.0456311 106.636602,18.6480583 C105.606699,18.2504854 104.711214,17.7014563 103.952039,16.9820388 C103.190971,16.2436893 102.592718,15.3728155 102.155388,14.3504854 C101.718058,13.3281553 101.50034,12.192233 101.50034,10.9427184 C101.50034,9.67427184 101.718058,8.53834951 102.155388,7.51601942 C102.592718,6.51262136 103.190971,5.62281553 103.952039,4.90339806 C104.711214,4.18398058 105.606699,3.61601942 106.636602,3.23737864 C107.668398,2.83980583 108.764563,2.65048544 109.93267,2.65048544 C111.013689,2.65048544 111.998155,2.83980583 112.882282,3.23737864 C113.768301,3.61601942 114.51801,4.18398058 115.131408,4.90339806 C115.746699,5.62281553 116.22,6.51262136 116.553204,7.51601942 C116.884515,8.53834951 117.05301,9.67427184 117.05301,10.9427184 L117.05301,12.4762136 L106.184126,12.4762136 C106.371553,13.4038835 106.776699,14.142233 107.40335,14.6912621 C108.026214,15.2402913 108.796748,15.5242718 109.713058,15.5242718 C110.483592,15.5242718 111.134854,15.3538835 111.664951,14.9941748 C112.196942,14.634466 112.658883,14.161165 113.054563,13.6121359 L116.333592,16.111165 L116.333592,16.111165 Z M120.56301,14.8427184 C120.975728,15.6757282 121.583447,16.3194175 122.386165,16.7548544 C123.188883,17.1902913 124.035146,17.4174757 124.924951,17.4174757 C125.33767,17.4174757 125.750388,17.3606796 126.163107,17.2092233 C126.573932,17.076699 126.943107,16.8873786 127.268738,16.6412621 C127.594369,16.3951456 127.861311,16.092233 128.06767,15.7325243 C128.272136,15.3917476 128.376262,14.9941748 128.376262,14.5398058 C128.376262,13.8203883 128.152864,13.2713592 127.707961,12.9116505 C127.263058,12.5519417 126.715922,12.2679612 126.06466,12.0597087 C125.413398,11.8514563 124.697767,11.681068 123.915874,11.5296117 C123.135874,11.3970874 122.41835,11.1699029 121.768981,10.8669903 C121.117718,10.5451456 120.568689,10.1286408 120.123786,9.57961165 C119.678883,9.04951456 119.457379,8.27330097 119.457379,7.28883495 C119.457379,6.51262136 119.608835,5.85 119.911748,5.28203883 C120.216553,4.71407767 120.612233,4.2407767 121.10068,3.88106796 C121.589126,3.50242718 122.136262,3.2184466 122.743981,3.04805825 C123.351699,2.85873786 123.970777,2.76407767 124.59932,2.76407767 C125.837476,2.76407767 126.905243,3.01019417 127.806408,3.48349515 C128.70568,3.95679612 129.406165,4.69514563 129.905971,5.71747573 L128.147184,6.81553398 C127.77801,6.07718447 127.317961,5.52815534 126.765146,5.1684466 C126.21233,4.78980583 125.489126,4.60048544 124.59932,4.60048544 C124.252864,4.60048544 123.889369,4.65728155 123.508835,4.77087379 C123.130194,4.88446602 122.787524,5.03592233 122.484612,5.24417476 C122.179806,5.45242718 121.924223,5.71747573 121.719757,6.02038835 C121.513398,6.34223301 121.409272,6.70194175 121.409272,7.1184466 C121.409272,7.81893204 121.63267,8.33009709 122.077573,8.67087379 C122.520583,9.01165049 123.069612,9.27669903 123.720874,9.46601942 C124.372136,9.65533981 125.087767,9.82572816 125.86966,9.95825243 C126.651553,10.0907767 127.367184,10.3179612 128.018447,10.6208738 C128.667816,10.9237864 129.216845,11.3592233 129.661748,11.9461165 C130.10665,12.5140777 130.328155,13.3470874 130.328155,14.4072816 C130.328155,15.2213592 130.182379,15.9218447 129.888932,16.5276699 C129.595485,17.1145631 129.196019,17.6257282 128.684854,18.023301 C128.175583,18.4398058 127.594369,18.7427184 126.943107,18.9509709 C126.293738,19.1402913 125.608398,19.2538835 124.892767,19.2538835 C123.590243,19.2538835 122.403204,18.988835 121.327864,18.4776699 C120.254417,17.9475728 119.423301,17.1524272 118.838301,16.0543689 L120.56301,14.8427184 M134.105097,11.0184466 C134.105097,11.8893204 134.267913,12.7223301 134.593544,13.4985437 C134.919175,14.2747573 135.362184,14.9563107 135.926359,15.5432039 C136.492427,16.111165 137.153155,16.565534 137.91233,16.9063107 C138.671505,17.2470874 139.496942,17.4174757 140.386748,17.4174757 C141.299272,17.4174757 142.122816,17.2470874 142.861165,16.9063107 C143.597621,16.565534 144.228058,16.111165 144.748689,15.5432039 C145.26932,14.9563107 145.665,14.2747573 145.937621,13.4985437 C146.20835,12.7223301 146.34466,11.8893204 146.34466,11.0184466 C146.34466,10.1286408 146.20835,9.29563107 145.937621,8.51941748 C145.665,7.74320388 145.26932,7.06165049 144.748689,6.47475728 C144.228058,5.90679612 143.597621,5.45242718 142.861165,5.11165049 C142.122816,4.77087379 141.299272,4.60048544 140.386748,4.60048544 C139.496942,4.60048544 138.671505,4.77087379 137.91233,5.11165049 C137.153155,5.45242718 136.492427,5.90679612 135.926359,6.47475728 C135.362184,7.06165049 134.919175,7.74320388 134.593544,8.51941748 C134.267913,9.29563107 134.105097,10.1286408 134.105097,11.0184466 Z M132.346311,3.18058252 L134.300097,3.18058252 L134.300097,5.92572816 L134.366359,5.92572816 C134.667379,5.37669903 135.047913,4.9223301 135.504175,4.52475728 C135.960437,4.12718447 136.454563,3.78640777 136.986553,3.54029126 C137.51665,3.27524272 138.075146,3.08592233 138.662039,2.95339806 C139.248932,2.83980583 139.822573,2.76407767 140.386748,2.76407767 C141.537816,2.76407767 142.594223,2.9723301 143.56165,3.38883495 C144.527184,3.78640777 145.362087,4.35436893 146.066359,5.09271845 C146.772524,5.83106796 147.321553,6.70194175 147.711553,7.70533981 C148.101553,8.70873786 148.296553,9.80679612 148.296553,11.0184466 C148.296553,12.211165 148.101553,13.3092233 147.711553,14.3126214 C147.321553,15.3160194 146.772524,16.1868932 146.066359,16.9252427 C145.362087,17.6635922 144.527184,18.2315534 143.56165,18.6480583 C142.594223,19.0456311 141.537816,19.2538835 140.386748,19.2538835 C139.822573,19.2538835 139.248932,19.1970874 138.662039,19.0645631 C138.075146,18.9320388 137.51665,18.7427184 136.986553,18.4966019 C136.454563,18.2315534 135.960437,17.9097087 135.504175,17.5121359 C135.047913,17.1145631 134.667379,16.6412621 134.366359,16.092233 L134.300097,16.092233 L134.300097,26.5805825 L132.346311,26.5805825 L132.346311,3.18058252 L132.346311,3.18058252 Z M158.453592,10.9805825 C157.628155,10.9805825 156.831117,11.0373786 156.060583,11.1509709 C155.290049,11.2645631 154.595243,11.4538835 153.978058,11.718932 C153.358981,12.0029126 152.864854,12.3626214 152.49568,12.8169903 C152.126505,13.2524272 151.942864,13.8203883 151.942864,14.5019417 C151.942864,14.9752427 152.045097,15.4106796 152.25335,15.7703883 C152.457816,16.1490291 152.724757,16.4519417 153.050388,16.6980583 C153.376019,16.9252427 153.739515,17.1145631 154.140874,17.2281553 C154.542233,17.3606796 154.949272,17.4174757 155.36199,17.4174757 C156.403252,17.4174757 157.260874,17.2660194 157.932961,16.9441748 C158.605049,16.6223301 159.142718,16.2247573 159.544078,15.7135922 C159.945437,15.2024272 160.221845,14.615534 160.373301,13.9718447 C160.52665,13.3281553 160.602379,12.684466 160.602379,12.0218447 L160.602379,10.9805825 L158.453592,10.9805825 Z M162.359272,12.2679612 C162.359272,13.0252427 162.364951,13.7257282 162.376311,14.3315534 C162.38767,14.9373786 162.402816,15.5053398 162.425534,16.0354369 C162.446359,16.5466019 162.472864,17.038835 162.506942,17.4932039 C162.539126,17.9475728 162.58835,18.3830097 162.652718,18.8373786 L160.829563,18.8373786 C160.698932,18.0800971 160.634563,17.2281553 160.634563,16.3004854 L160.570194,16.3004854 C160.004126,17.3228155 159.305534,18.061165 158.468738,18.534466 C157.633835,19.007767 156.575534,19.2538835 155.295728,19.2538835 C154.644466,19.2538835 154.004563,19.1592233 153.376019,18.988835 C152.745583,18.8184466 152.181408,18.5533981 151.681602,18.1747573 C151.183689,17.8150485 150.77665,17.3228155 150.462379,16.7359223 C150.146214,16.1490291 149.989078,15.4485437 149.989078,14.5966019 C149.989078,13.4038835 150.282524,12.4572816 150.869417,11.7567961 C151.454417,11.0563107 152.175728,10.5262136 153.03335,10.1854369 C153.890971,9.82572816 154.801602,9.59854369 155.767136,9.5038835 C156.73267,9.4092233 157.584612,9.35242718 158.322961,9.35242718 L160.602379,9.35242718 L160.602379,8.40582524 C160.602379,7.04271845 160.201019,6.07718447 159.398301,5.49029126 C158.593689,4.90339806 157.584612,4.60048544 156.369175,4.60048544 C154.633107,4.60048544 153.103398,5.18737864 151.780049,6.36116505 L150.64034,4.97912621 C151.357864,4.25970874 152.245777,3.71067961 153.309757,3.33203883 C154.373738,2.95339806 155.394175,2.76407767 156.369175,2.76407767 C158.19233,2.76407767 159.646311,3.2184466 160.73301,4.10825243 C161.817816,4.99805825 162.359272,6.4368932 162.359272,8.42475728 L162.359272,12.2679612 L162.359272,12.2679612 Z M178.050146,16.5466019 C177.311796,17.4742718 176.476893,18.1558252 175.543544,18.5912621 C174.610194,19.026699 173.601117,19.2538835 172.516311,19.2538835 C171.365243,19.2538835 170.303155,19.0456311 169.326262,18.6480583 C168.349369,18.2315534 167.514466,17.6635922 166.81966,16.9252427 C166.124854,16.1868932 165.583398,15.3160194 165.191505,14.3126214 C164.801505,13.3092233 164.606505,12.211165 164.606505,11.0184466 C164.606505,9.80679612 164.801505,8.70873786 165.191505,7.70533981 C165.583398,6.70194175 166.124854,5.83106796 166.81966,5.09271845 C167.514466,4.35436893 168.349369,3.78640777 169.326262,3.38883495 C170.303155,2.9723301 171.365243,2.76407767 172.516311,2.76407767 C173.623835,2.76407767 174.648058,3.01019417 175.592767,3.48349515 C176.535583,3.95679612 177.376165,4.61941748 178.114515,5.49029126 L176.552621,6.70194175 C175.988447,6.05825243 175.369369,5.52815534 174.697282,5.1684466 C174.025194,4.78980583 173.298204,4.60048544 172.516311,4.60048544 C171.603786,4.60048544 170.780243,4.77087379 170.041893,5.11165049 C169.303544,5.45242718 168.675,5.90679612 168.154369,6.47475728 C167.633738,7.06165049 167.238058,7.74320388 166.965437,8.51941748 C166.694709,9.29563107 166.558398,10.1286408 166.558398,11.0184466 C166.558398,11.8893204 166.694709,12.7223301 166.965437,13.4985437 C167.238058,14.2747573 167.633738,14.9563107 168.154369,15.5432039 C168.675,16.111165 169.303544,16.565534 170.041893,16.9063107 C170.780243,17.2470874 171.603786,17.4174757 172.516311,17.4174757 C173.339854,17.4174757 174.095243,17.2281553 174.778689,16.8305825 C175.462136,16.4330097 176.052816,15.9029126 176.552621,15.2402913 L178.050146,16.5466019 M192.08068,9.69320388 C192.08068,8.99271845 191.944369,8.33009709 191.673641,7.72427184 C191.401019,7.1184466 191.031845,6.56941748 190.566117,6.11504854 C190.098495,5.64174757 189.54568,5.28203883 188.905777,5.01699029 C188.265874,4.73300971 187.588107,4.60048544 186.872476,4.60048544 C185.808495,4.60048544 184.922476,4.8276699 184.218204,5.28203883 C183.513932,5.73640777 182.953544,6.24757282 182.542718,6.83446602 C182.13,7.42135922 181.836553,8.00825243 181.662379,8.55728155 C181.488204,9.10631068 181.40301,9.48495146 181.40301,9.69320388 L192.08068,9.69320388 Z M193.578204,15.9029126 C192.817136,17.0956311 191.88,17.9475728 190.761117,18.4776699 C189.644126,18.988835 188.41165,19.2538835 187.067476,19.2538835 C185.916408,19.2538835 184.875146,19.0456311 183.941796,18.6480583 C183.008447,18.2315534 182.205728,17.6635922 181.533641,16.9252427 C180.85966,16.1868932 180.344709,15.3160194 179.986893,14.3126214 C179.629078,13.3092233 179.449223,12.192233 179.449223,10.9805825 C179.449223,9.80679612 179.634757,8.70873786 180.002039,7.72427184 C180.373107,6.72087379 180.891845,5.86893204 181.565825,5.13058252 C182.237913,4.39223301 183.031165,3.82427184 183.941796,3.38883495 C184.852427,2.9723301 185.863398,2.76407767 186.969029,2.76407767 C188.120097,2.76407767 189.134854,2.9723301 190.013301,3.38883495 C190.891748,3.82427184 191.628204,4.37330097 192.226456,5.05485437 C192.822816,5.75533981 193.273398,6.5315534 193.578204,7.42135922 C193.881117,8.29223301 194.032573,9.20097087 194.032573,10.0907767 L194.032573,11.5106796 L181.40301,11.5106796 C181.40301,11.9461165 181.484417,12.4951456 181.647233,13.157767 C181.810049,13.8393204 182.107282,14.4830097 182.542718,15.107767 C182.976262,15.7514563 183.555583,16.2815534 184.282573,16.7359223 C185.009563,17.1902913 185.948592,17.4174757 187.09966,17.4174757 C188.097379,17.4174757 189.062913,17.1713592 189.996262,16.6791262 C190.929612,16.1679612 191.645243,15.5053398 192.145049,14.634466 L193.578204,15.9029126 L193.578204,15.9029126 Z" id="Combined-Shape" fill="#373A42"></path>
                <path d="M31.1110194,23.8543689 C30.9747087,23.6839806 30.791068,23.5703883 30.5582039,23.4757282 C30.3253398,23.4 30.1057282,23.3621359 29.8974757,23.3621359 L29.5226214,23.4 L29.157233,23.5325243 L28.878932,23.7786408 L28.7710194,24.1383495 C28.7710194,24.365534 28.8562136,24.5548544 29.0284951,24.6684466 C29.1988835,24.7820388 29.4166019,24.8956311 29.6778641,24.9713592 C29.9391262,25.0660194 30.2193204,25.1606796 30.5203398,25.2364078 C30.8213592,25.331068 31.1015534,25.4446602 31.3628155,25.5961165 C31.6240777,25.7665049 31.8417961,25.9747573 32.0121845,26.2398058 C32.184466,26.5048544 32.2715534,26.8456311 32.2715534,27.3 C32.2715534,27.7165049 32.1920388,28.0951456 32.0349029,28.3980583 C31.8758738,28.7199029 31.663835,28.9849515 31.395,29.1932039 C31.126165,29.4014563 30.8156796,29.5529126 30.4616505,29.6475728 C30.1076214,29.742233 29.732767,29.7990291 29.3389806,29.7990291 C28.8448544,29.7990291 28.386699,29.723301 27.9645146,29.5718447 C27.5423301,29.4203883 27.1485437,29.1742718 26.7850485,28.8524272 L27.9758738,27.5271845 C28.1481553,27.773301 28.3639806,27.9436893 28.6252427,28.0572816 C28.8865049,28.1898058 29.157233,28.2466019 29.435534,28.2466019 L29.8501456,28.2087379 L30.225,28.0572816 L30.493835,27.811165 L30.596068,27.4514563 C30.596068,27.2242718 30.5070874,27.0538835 30.3329126,26.9213592 C30.1568447,26.788835 29.937233,26.6752427 29.6721845,26.5805825 C29.4071359,26.4859223 29.1212621,26.3912621 28.8126699,26.2966019 C28.5059709,26.2019417 28.2200971,26.0883495 27.9531553,25.9179612 C27.69,25.7665049 27.4684951,25.5582524 27.2943204,25.2932039 C27.1182524,25.0470874 27.031165,24.7063107 27.031165,24.2898058 C27.031165,23.873301 27.1106796,23.5135922 27.2716019,23.2106796 C27.4344175,22.907767 27.6483495,22.6427184 27.9171845,22.434466 C28.1860194,22.2262136 28.4946117,22.0747573 28.8448544,21.961165 C29.1950971,21.8665049 29.5585922,21.8097087 29.9296602,21.8097087 C30.3594175,21.8097087 30.7740291,21.8665049 31.1753883,21.9990291 C31.5767476,22.1126214 31.9383495,22.3208738 32.2601942,22.6048544 L31.1110194,23.8543689 M34.6834951,21.9990291 L39.8481553,21.9990291 L39.8481553,23.5514563 L36.3570874,23.5514563 L36.3570874,24.9713592 L39.6550485,24.9713592 L39.6550485,26.5237864 L36.3570874,26.5237864 L36.3570874,28.0572816 L40.0412621,28.0572816 L40.0412621,29.6097087 L34.6834951,29.6097087 L34.6834951,21.9990291 M42.5497573,21.9990291 L44.2252427,21.9990291 L44.2252427,28.0572816 L47.3282039,28.0572816 L47.3282039,29.6097087 L42.5497573,29.6097087 L42.5497573,21.9990291 M49.418301,21.9990291 L54.5185922,21.9990291 L54.5185922,23.5514563 L51.0937864,23.5514563 L51.0937864,25.1038835 L54.2611165,25.1038835 L54.2611165,26.6373786 L51.0937864,26.6373786 L51.0937864,29.6097087 L49.418301,29.6097087 L49.418301,21.9990291 M64.4579126,23.8543689 C64.3216019,23.6839806 64.1379612,23.5703883 63.9050971,23.4757282 C63.672233,23.4 63.4507282,23.3621359 63.2443689,23.3621359 L62.8676214,23.4 L62.502233,23.5325243 L62.223932,23.7786408 L62.1160194,24.1383495 C62.1160194,24.365534 62.2031068,24.5548544 62.3753883,24.6684466 C62.5457767,24.7820388 62.7616019,24.8956311 63.0247573,24.9713592 C63.2860194,25.0660194 63.5662136,25.1606796 63.867233,25.2364078 C64.1682524,25.331068 64.4484466,25.4446602 64.7097087,25.5961165 C64.9709709,25.7665049 65.1867961,25.9747573 65.3590777,26.2398058 C65.5313592,26.5048544 65.6165534,26.8456311 65.6165534,27.3 C65.6165534,27.7165049 65.538932,28.0951456 65.3799029,28.3980583 C65.222767,28.7199029 65.0107282,28.9849515 64.7418932,29.1932039 C64.4730583,29.4014563 64.1625728,29.5529126 63.8085437,29.6475728 C63.4526214,29.742233 63.0796602,29.7990291 62.6858738,29.7990291 C62.1917476,29.7990291 61.7335922,29.723301 61.3114078,29.5718447 C60.8892233,29.4203883 60.4954369,29.1742718 60.1300485,28.8524272 L61.3208738,27.5271845 C61.4950485,27.773301 61.7108738,27.9436893 61.9721359,28.0572816 C62.2333981,28.1898058 62.502233,28.2466019 62.7824272,28.2466019 L63.1951456,28.2087379 L63.5718932,28.0572816 L63.8407282,27.811165 L63.9429612,27.4514563 C63.9429612,27.2242718 63.8539806,27.0538835 63.6798058,26.9213592 C63.5037379,26.788835 63.2841262,26.6752427 63.0190777,26.5805825 C62.7540291,26.4859223 62.4681553,26.3912621 62.1595631,26.2966019 C61.8528641,26.2019417 61.5650971,26.0883495 61.3000485,25.9179612 C61.035,25.7665049 60.8153883,25.5582524 60.6412136,25.2932039 C60.4651456,25.0470874 60.3780583,24.7063107 60.3780583,24.2898058 C60.3780583,23.873301 60.4575728,23.5135922 60.6184951,23.2106796 C60.7794175,22.907767 60.9952427,22.6427184 61.2621845,22.434466 C61.5310194,22.2262136 61.8415049,22.0747573 62.1917476,21.961165 C62.5419903,21.8665049 62.9035922,21.8097087 63.2765534,21.8097087 C63.7063107,21.8097087 64.1209223,21.8665049 64.5222816,21.9990291 C64.9217476,22.1126214 65.2833495,22.3208738 65.6070874,22.6048544 L64.4579126,23.8543689 M69.4370388,23.4946602 L67.2674272,23.4946602 L67.2674272,21.9990291 L73.2802427,21.9990291 L73.2802427,23.4946602 L71.1106311,23.4946602 L71.1106311,29.6097087 L69.4370388,29.6097087 L69.4370388,23.4946602 M76.5630583,25.8043689 C76.5630583,26.1640777 76.6179612,26.4859223 76.7296602,26.788835 C76.839466,27.0917476 76.9984951,27.3378641 77.2067476,27.5650485 C77.415,27.773301 77.6630097,27.9436893 77.9526699,28.0762136 C78.2423301,28.1898058 78.566068,28.2466019 78.9238835,28.2466019 C79.281699,28.2466019 79.6054369,28.1898058 79.8969903,28.0762136 C80.1866505,27.9436893 80.4346602,27.773301 80.6429126,27.5650485 C80.8492718,27.3378641 81.0101942,27.0917476 81.12,26.788835 C81.231699,26.4859223 81.2866019,26.1640777 81.2866019,25.8043689 C81.2866019,25.4635922 81.231699,25.1228155 81.12,24.8199029 C81.0101942,24.5359223 80.8492718,24.2708738 80.6429126,24.0436893 C80.4346602,23.8354369 80.1866505,23.6650485 79.8969903,23.5325243 C79.6054369,23.418932 79.281699,23.3621359 78.9238835,23.3621359 C78.566068,23.3621359 78.2423301,23.418932 77.9526699,23.5325243 C77.6630097,23.6650485 77.415,23.8354369 77.2067476,24.0436893 C76.9984951,24.2708738 76.839466,24.5359223 76.7296602,24.8199029 C76.6179612,25.1228155 76.5630583,25.4635922 76.5630583,25.8043689 Z M74.8232039,25.8043689 C74.8232039,25.1985437 74.9254369,24.6495146 75.1280097,24.1572816 C75.3324757,23.6650485 75.6183495,23.2296117 75.9818447,22.888835 C76.347233,22.5480583 76.7807767,22.2830097 77.2824757,22.0936893 C77.7822816,21.9043689 78.3313107,21.8097087 78.9238835,21.8097087 C79.5183495,21.8097087 80.0654854,21.9043689 80.5671845,22.0936893 C81.0688835,22.2830097 81.500534,22.5480583 81.8659223,22.888835 C82.2313107,23.2296117 82.5171845,23.6650485 82.7197573,24.1572816 C82.9242233,24.6495146 83.0264563,25.1985437 83.0264563,25.8043689 C83.0264563,26.4101942 82.9242233,26.9592233 82.7197573,27.4514563 C82.5171845,27.9626214 82.2313107,28.3791262 81.8659223,28.7199029 C81.500534,29.0606796 81.0688835,29.3446602 80.5671845,29.5150485 C80.0654854,29.7043689 79.5183495,29.7990291 78.9238835,29.7990291 C78.3313107,29.7990291 77.7822816,29.7043689 77.2824757,29.5150485 C76.7807767,29.3446602 76.347233,29.0606796 75.9818447,28.7199029 C75.6183495,28.3791262 75.3324757,27.9626214 75.1280097,27.4514563 C74.9254369,26.9592233 74.8232039,26.4101942 74.8232039,25.8043689 L74.8232039,25.8043689 Z M86.9416019,25.1606796 L87.9298544,25.1606796 L88.4069417,25.1417476 L88.8632039,25.0470874 L89.2020874,24.7820388 C89.291068,24.6684466 89.3365049,24.5169903 89.3365049,24.3087379 C89.3365049,24.1004854 89.2967476,23.9490291 89.2191262,23.8354369 L88.9181068,23.5703883 L88.4978155,23.4567961 L88.037767,23.418932 L86.9416019,23.418932 L86.9416019,25.1606796 Z M85.2661165,21.9990291 L88.2081553,21.9990291 C88.5943689,21.9990291 88.9616505,22.0368932 89.31,22.1126214 C89.6564563,22.1883495 89.9612621,22.3208738 90.2225243,22.4912621 C90.4837864,22.6616505 90.6901456,22.907767 90.8453883,23.2106796 C90.9987379,23.4946602 91.0763592,23.873301 91.0763592,24.3087379 C91.0763592,24.857767 90.9362621,25.3121359 90.656068,25.6907767 C90.377767,26.0504854 89.9707282,26.2966019 89.4330583,26.3912621 L91.3660194,29.6097087 L89.3573301,29.6097087 L87.768932,26.5616505 L86.9416019,26.5616505 L86.9416019,29.6097087 L85.2661165,29.6097087 L85.2661165,21.9990291 L85.2661165,21.9990291 Z M96.4719903,24.2140777 L95.55,26.5805825 L97.407233,26.5805825 L96.4719903,24.2140777 Z M95.828301,21.9990291 L97.2141262,21.9990291 L100.51966,29.6097087 L98.6321359,29.6097087 L97.9751942,28.0004854 L95.0236893,28.0004854 L94.389466,29.6097087 L92.541699,29.6097087 L95.828301,21.9990291 L95.828301,21.9990291 Z M109.268155,29.0796117 C108.774029,29.3257282 108.259078,29.5150485 107.721408,29.6286408 C107.185631,29.742233 106.636602,29.7990291 106.08,29.7990291 C105.485534,29.7990291 104.938398,29.7043689 104.436699,29.5150485 C103.935,29.3446602 103.50335,29.0606796 103.137961,28.7199029 C102.772573,28.3791262 102.486699,27.9626214 102.284126,27.4514563 C102.07966,26.9592233 101.977427,26.4101942 101.977427,25.8043689 C101.977427,25.1985437 102.07966,24.6495146 102.284126,24.1572816 C102.486699,23.6650485 102.772573,23.2296117 103.137961,22.888835 C103.50335,22.5480583 103.935,22.2830097 104.436699,22.0936893 C104.938398,21.9043689 105.485534,21.8097087 106.08,21.8097087 C106.687718,21.8097087 107.248107,21.8854369 107.759272,22.0368932 C108.27233,22.1883495 108.721019,22.434466 109.107233,22.7941748 L107.925874,24.0815534 C107.696796,23.8354369 107.43932,23.6650485 107.153447,23.5325243 C106.86568,23.418932 106.509757,23.3621359 106.08,23.3621359 C105.720291,23.3621359 105.398447,23.418932 105.106893,23.5325243 C104.817233,23.6650485 104.569223,23.8354369 104.360971,24.0436893 C104.152718,24.2708738 103.993689,24.5359223 103.883883,24.8199029 C103.772184,25.1228155 103.717282,25.4635922 103.717282,25.8043689 C103.717282,26.1640777 103.772184,26.4859223 103.883883,26.788835 C103.993689,27.0917476 104.152718,27.3378641 104.360971,27.5650485 C104.569223,27.773301 104.817233,27.9436893 105.106893,28.0762136 C105.398447,28.1898058 105.720291,28.2466019 106.08,28.2466019 C106.443495,28.2466019 106.75966,28.2087379 107.024709,28.1330097 C107.289757,28.0572816 107.499903,27.9626214 107.657039,27.8868932 L107.657039,26.6373786 L106.293932,26.6373786 L106.293932,25.1038835 L109.268155,25.1038835 L109.268155,29.0796117 M111.905388,21.9990291 L117.070049,21.9990291 L117.070049,23.5514563 L113.580874,23.5514563 L113.580874,24.9713592 L116.876942,24.9713592 L116.876942,26.5237864 L113.580874,26.5237864 L113.580874,28.0572816 L117.265049,28.0572816 L117.265049,29.6097087 L111.905388,29.6097087 L111.905388,21.9990291" id="Combined-Shape" fill="#373A42" opacity="0.5"></path>
                <path d="M21.1130097,20.2383495 L21.245534,20.3140777 L21.245534,21.8475728 C21.245534,23.381068 20.4200971,24.8199029 19.0797087,25.5961165 L12.7885922,29.2121359 C11.4500971,29.9883495 9.7992233,29.9883495 8.46072816,29.2121359 L7.13359223,28.4548544 L7.13359223,28.3033981 L21.1130097,20.2383495 Z M12.7885922,7.19417476 L13.9832039,7.87572816 L13.9832039,8.17864078 L5.07567961,13.3281553 C4.16504854,13.8393204 3.61601942,14.8237864 3.64252427,15.8839806 L3.65956311,16.584466 L3.81480583,16.6791262 L16.4008252,9.4092233 L16.6223301,9.4092233 L19.0797087,10.8291262 C20.4200971,11.6053398 21.245534,13.0252427 21.245534,14.5776699 L21.245534,17.4364078 L21.1546602,17.5878641 L4.81252427,27.0160194 L4.64592233,27.0160194 C4.64592233,27.0160194 3.94062468,26.6122398 3.17666194,26.1723736 L2.82225279,25.968135 C2.11452175,25.5598885 1.44156958,25.1690939 1.31199029,25.0849515 L1.33092233,24.8956311 C2.75271845,24.0815534 16.4330097,16.1868932 17.6067961,15.5053398 L17.7128155,15.3538835 C17.7563592,15.1645631 17.8131553,14.6912621 17.540534,14.2179612 C17.2698058,13.7446602 16.8457282,13.5742718 16.6564078,13.5174757 L16.4803398,13.5364078 C15.9105165,13.8622871 12.3074966,15.9419622 8.62007116,18.0706561 L7.88233438,18.4965434 C4.31961305,20.5532746 0.861718128,22.5496101 0.172281553,22.9456311 L0,22.8509709 L0.000906063767,20.7200035 C0.00094340156,20.6381804 0.000981450548,20.5549873 0.00102012183,20.4706066 L0.00189320388,18.5865291 C0.00193623124,18.4944506 0.00197925861,18.40246 0.00202219707,18.3107397 L0.00299013489,16.2546506 L0.00304326346,16.1423707 L0.00378640777,14.5776699 C0.00378640777,13.0252427 0.829223301,11.6053398 2.16961165,10.8291262 L8.46072816,7.19417476 C9.7992233,6.41796117 11.4500971,6.41796117 12.7885922,7.19417476 Z M10.6473786,0 C15.3084466,0 19.1383981,3.57815534 19.4716019,8.06504854 L19.1857282,8.23543689 L16.1963592,6.51262136 L16.1206311,6.41796117 C15.2308252,4.31650485 13.0971845,2.83980583 10.6076214,2.83980583 C8.11427184,2.83980583 5.98441748,4.35436893 5.11165049,6.47475728 L5.03592233,6.56941748 L2.06548544,8.27330097 L1.77961165,8.10291262 C2.05223301,3.59708738 5.92194175,0 10.6473786,0 Z" id="Combined-Shape" fill="#4B9CED"></path>
                <path d="M197.5,3 C196.119141,3 195,4.11914068 195,5.5 C195,6.88085932 196.119141,8 197.5,8 C198.880859,8 200,6.88085932 200,5.5 C200,4.11914068 198.880859,3 197.5,3 Z M197.5,7.53125 C196.379883,7.53125 195.46875,6.62001956 195.46875,5.5 C195.46875,4.37998044 196.379883,3.46875 197.5,3.46875 C198.620117,3.46875 199.53125,4.37998044 199.53125,5.5 C199.53125,6.62001956 198.620117,7.53125 197.5,7.53125 Z M198.4375,5.03125 C198.4375,4.60029292 198.087109,4.25 197.65625,4.25 L196.796875,4.25 C196.66748,4.25 196.5625,4.35498047 196.5625,4.484375 L196.5625,6.515625 C196.5625,6.64501953 196.66748,6.75 196.796875,6.75 C196.92627,6.75 197.03125,6.64501953 197.03125,6.515625 L197.03125,5.8125 L197.615137,5.8125 L197.990723,6.61513674 C198.030273,6.70019525 198.115234,6.75 198.203125,6.75 C198.236699,6.75 198.270264,6.74298155 198.302637,6.72802734 C198.419824,6.6730957 198.470215,6.53359371 198.415527,6.41611326 L198.075,5.68857419 C198.291992,5.54980475 198.4375,5.30761722 198.4375,5.03125 Z M197.65625,5.34375 L197.03125,5.34375 L197.03125,4.71875 L197.65625,4.71875 C197.828711,4.71875 197.96875,4.85878903 197.96875,5.03125 C197.96875,5.20371097 197.829102,5.34375 197.65625,5.34375 Z" id="Shape" fill="#373A42" fill-rule="nonzero"></path>
            </g>
        </g>
    </g>
</svg>