<?xml version="1.0" encoding="UTF-8"?>
<svg width="512px" height="512px" viewBox="0 0 512 512" version="1.1" xmlns="http://www.w3.org/2000/svg" xmlns:xlink="http://www.w3.org/1999/xlink">
    <title>logo-icon-blue</title>
    <g id="logo-icon-blue" stroke="none" stroke-width="1" fill="none" fill-rule="evenodd">
        <path d="M400.178578,329.500397 L402,330.542494 L402,351.644956 C402,372.747419 390.655142,392.54726 372.232757,403.228753 L285.767243,452.98888 C267.370879,463.670373 244.681162,463.670373 226.284798,452.98888 L208.044555,442.567911 L208.044555,440.483717 L400.178578,329.500397 Z M285.767243,149.999206 L302.186063,159.378078 L302.186063,163.546465 L179.760471,234.409055 C167.244698,241.443209 159.698806,254.990469 160.06309,269.579825 L160.297273,279.219222 L162.430939,280.521843 L335.414008,180.48054 L338.458385,180.48054 L372.232757,200.019857 C390.655142,210.70135 402,230.240667 402,251.603654 L402,290.942812 L400.751025,293.027006 L176.143646,422.76807 L173.853858,422.76807 C173.853858,422.76807 173.841709,422.761106 173.817805,422.747403 L173.754441,422.711077 C172.690593,422.101163 163.249131,416.68733 153.191651,410.888482 L152.445642,410.4583 L151.129329,409.698974 L150.799947,409.508909 L149.154202,408.558883 C139.294519,402.865322 129.835288,397.366958 128.03208,396.194599 L128.292283,393.589357 C147.833541,382.386815 335.856354,273.748213 351.98895,264.369341 L353.446088,262.285147 C354.044555,259.679905 354.825165,253.166799 351.078239,246.653693 C347.357334,240.140588 341.528783,237.79587 338.926751,237.014297 L336.506862,237.274821 C320.582427,246.393169 132.299412,355.292295 112.367849,366.755361 L110,365.45274 L110.000946,362.430826 L110.001064,362.123738 L110.001751,360.397299 C110.001852,360.146419 110.001958,359.887443 110.002068,359.620582 L110.002774,357.926529 L110.003004,357.382951 L110.00374,355.658354 C110.003826,355.459095 110.003912,355.257336 110.004001,355.053124 L110.004922,352.930925 L110.005193,352.311382 L110.005753,351.037424 C110.005848,350.821297 110.005944,350.603294 110.006041,350.383453 L110.006939,348.356239 C110.007042,348.1257 110.007145,347.893433 110.00725,347.659476 L110.007885,346.235744 C110.007993,345.995174 110.008101,345.752987 110.00821,345.509221 L110.008875,344.027971 C110.008988,343.778036 110.009101,343.526596 110.009215,343.273689 L110.009907,341.738922 C110.010024,341.48029 110.010141,341.220264 110.010259,340.958882 L110.010977,339.3746 C110.01134,338.574614 110.011709,337.763084 110.012083,336.941009 L110.012838,335.283096 C110.012966,335.004532 110.013093,334.724872 110.013221,334.44415 L110.013997,332.747394 C110.014388,331.89295 110.014784,331.029629 110.015184,330.158431 L110.015989,328.40583 C110.016665,326.937071 110.017351,325.448286 110.018045,323.944106 L110.018882,322.131998 C110.019583,320.616243 110.020291,319.086947 110.021004,317.548741 L110.021863,315.698913 C110.022724,313.845401 110.023591,311.981727 110.02446,310.115894 L110.02602,306.769658 L110.026825,305.045808 C110.027228,304.184491 110.02763,303.324262 110.028031,302.465912 L110.028833,300.751951 C110.029233,299.896458 110.029633,299.043371 110.030031,298.19348 L110.030826,296.498196 C110.031222,295.65292 110.031617,294.811367 110.03201,293.974329 L110.032793,292.306507 C110.032923,292.029618 110.033053,291.75329 110.033182,291.47755 L110.033956,289.830423 C110.034342,289.010631 110.034724,288.196671 110.035104,287.389334 L110.03586,285.783726 C110.035985,285.517675 110.03611,285.252418 110.036235,284.987985 L110.036977,283.411506 C110.037346,282.628444 110.037711,281.853323 110.038073,281.086934 L110.03879,279.566032 C110.038909,279.314567 110.039027,279.06413 110.039145,278.814752 L110.039845,277.331414 C110.03996,277.086385 110.040076,276.842473 110.04019,276.599707 L110.040872,275.157095 C110.040984,274.919029 110.041096,274.682168 110.041207,274.446541 L110.041868,273.047818 C110.041977,272.817244 110.042086,272.587961 110.042193,272.36 L110.042833,271.00833 C110.042938,270.785773 110.043043,270.564596 110.043147,270.344829 L110.043762,269.043373 C110.043864,268.829361 110.043964,268.616817 110.044064,268.40577 L110.044944,266.54757 C110.04504,266.345771 110.045135,266.145557 110.045229,265.946958 L110.045784,264.774971 C110.045875,264.582947 110.045965,264.392596 110.046055,264.203948 L110.046837,262.552865 C110.046922,262.374695 110.047006,262.198314 110.047088,262.023753 L110.04781,260.502622 C110.047888,260.339241 110.047964,260.177768 110.04804,260.018232 L110.048879,258.250929 L110.049075,257.837621 L110.049972,255.950198 L110.050134,255.609659 L110.050852,254.100497 C110.050937,253.921314 110.051018,253.751124 110.051095,253.59014 L110.051979,251.732936 L110.052006,251.676615 L110.052041,251.603654 C110.052041,230.240667 121.396899,210.70135 139.819284,200.019857 L226.284798,149.999206 C244.681162,139.317712 267.370879,139.317712 285.767243,149.999206 Z M256.338264,51 C320.400285,51 373.039387,100.239079 377.618963,161.98332 L373.689895,164.328038 L332.603814,140.620334 L331.563001,139.317712 C319.333452,110.399523 290.008555,90.0786338 255.791837,90.0786338 C221.52308,90.0786338 192.250223,110.920572 180.254857,140.099285 L179.214044,141.401906 L138.388166,164.849087 L134.459098,162.504369 C138.206024,100.499603 191.391552,51 256.338264,51 Z" id="Combined-Shape" fill="#4B9CED"></path>
    </g>
</svg>